<svg width="330" height="721" viewBox="0 0 330 721" fill="none" xmlns="http://www.w3.org/2000/svg">
<g id="Group 10 Copy">
<path id="Path 2" d="M156.953 758.201C156.953 758.201 310.084 725.771 316.39 639.127C322.697 552.484 84.792 621.941 180.033 441.127C275.274 260.314 361.35 255.838 316.39 143.127C271.431 30.4166 150.704 -28.7519 10.453 16.0018C-129.798 60.7554 -143 348.127 -143 348.127" stroke="#D0D5F6" stroke-width="2"/>
<path id="Path 2 Copy" d="M114.964 758.201C114.964 758.201 235.088 729.72 240.036 653.627C244.983 577.533 58.3566 638.533 133.069 479.736C207.781 320.94 275.305 317.009 240.036 218.022C204.767 119.036 110.062 67.0722 0.0407867 106.376C-109.98 145.681 -120.337 398.06 -120.337 398.06" stroke="#D0D5F6" stroke-width="2"/>
<path id="Path 2 Copy 2" d="M78.7286 760.201C78.7286 760.201 169.634 735.36 173.378 668.993C177.122 602.626 35.8907 655.829 92.4298 517.329C148.969 378.83 200.068 375.402 173.378 289.068C146.688 202.734 75.0188 157.412 -8.24019 191.692C-91.4992 225.973 -99.3366 446.093 -99.3366 446.093" stroke="#D0D5F6" stroke-width="2"/>
</g>
</svg>
